<?xml version="1.0" encoding="UTF-8" standalone="no"?>
<!-- Generator: Adobe Illustrator 25.4.1, SVG Export Plug-In . SVG Version: 6.00 Build 0)  -->

<svg
   enable-background="new 0 0 256 256"
   version="1.1"
   viewBox="0 0 256 256"
   xml:space="preserve"
   id="svg2"
   sodipodi:docname="Linux_Mint_logo_without_wordmark_optimized.svg"
   inkscape:version="1.4.2 (1:1.4.2+202505120737+ebf0e940d0)"
   xmlns:inkscape="http://www.inkscape.org/namespaces/inkscape"
   xmlns:sodipodi="http://sodipodi.sourceforge.net/DTD/sodipodi-0.dtd"
   xmlns="http://www.w3.org/2000/svg"
   xmlns:svg="http://www.w3.org/2000/svg"><defs
   id="defs2" /><sodipodi:namedview
   id="namedview2"
   pagecolor="#ffffff"
   bordercolor="#000000"
   borderopacity="0.25"
   inkscape:showpageshadow="2"
   inkscape:pageopacity="0.0"
   inkscape:pagecheckerboard="0"
   inkscape:deskcolor="#d1d1d1"
   inkscape:zoom="2.5192468"
   inkscape:cx="128.01445"
   inkscape:cy="128.01445"
   inkscape:window-width="1920"
   inkscape:window-height="994"
   inkscape:window-x="0"
   inkscape:window-y="0"
   inkscape:window-maximized="1"
   inkscape:current-layer="svg2" />
<style
   type="text/css"
   id="style1">
	.st0{fill:#FFFFFF;}
	.st1{fill:#69B53F;}
	.st2{fill:#F8F8F8;}
</style>
<path
   id="circle1"
   class="st0"
   style="fill:#ffffff"
   d="M 256,128 A 128,128 0 0 1 128,256 128,128 0 0 1 0,128 128,128 0 0 1 128,0 128,128 0 0 1 256,128 Z" /><path
   id="circle2"
   class="st1"
   style="fill:#69b53f"
   d="M 236,128 A 108,108 0 0 1 128,236 108,108 0 0 1 20,128 108,108 0 0 1 128,20 108,108 0 0 1 236,128 Z" /><path
   id="_x3C_Path_x3E_"
   class="st2"
   d="m58 63v90c0.1 22.1 17.9 39.9 40 40h60c22.1-0.1 39.9-17.9 40-40v-50c-0.1-16.5-13.5-29.9-30-30-7.4 0-14.5 2.8-20 7.9-5.5-5-12.6-7.8-20-7.9-16.5 0.1-29.9 13.5-30 30v50h20v-50c0-5.5 4.5-10 10-10s10 4.5 10 10v50h20v-50c0-5.5 4.5-10 10-10s10 4.5 10 10v50c0.1 11-8.8 19.9-19.7 20h-0.3-60c-11 0.1-19.9-8.8-20-19.7v-0.3-90h-20z"
   enable-background="new 0 0 256 256"
   style="fill:#ffffff;fill-opacity:1" />
</svg>
